{
  "accessors": [
    {
      "bufferView": 2,
      "componentType": 5126,
      "count": 500,
      "max": [
        0.015732422471046448,
        0.04389038681983948,
        0.047035738825798035
      ],
      "min": [
        -0.015732422471046448,
        -0.03346094489097595,
        -0.061077944934368134
      ],
      "type": "VEC3"
    },
    {
      "bufferView": 2,
      "byteOffset": 6000,
      "componentType": 5126,
      "count": 500,
      "max": [
        1.0,
        1.0,
        0.3973194360733032
      ],
      "min": [
        -1.0,
        -0.9999294877052307,
        -0.9986900091171265
      ],
      "type": "VEC3"
    },
    {
      "bufferView": 3,
      "componentType": 5126,
      "count": 500,
      "max": [
        0.2560484707355499,
        0.9764290452003479,
        0.9999350905418396,
        1.0
      ],
      "min": [
        -0.9918965697288513,
        -0.9763128757476807,
        -0.9999421834945679,
        1.0
      ],
      "type": "VEC4"
    },
    {
      "bufferView": 1,
      "componentType": 5126,
      "count": 500,
      "max": [
        0.9714826941490173,
        0.8493656516075134
      ],
      "min": [
        0.28627434372901917,
        0.48756206035614014
      ],
      "type": "VEC2"
    },
    {
      "bufferView": 1,
      "byteOffset": 4000,
      "componentType": 5126,
      "count": 500,
      "max": [
        0.9714826941490173,
        0.8493656516075134
      ],
      "min": [
        0.28627434372901917,
        0.48756206035614014
      ],
      "type": "VEC2"
    },
    {
      "bufferView": 0,
      "componentType": 5125,
      "count": 2382,
      "type": "SCALAR"
    },
    {
      "bufferView": 2,
      "byteOffset": 12000,
      "componentType": 5126,
      "count": 1680,
      "max": [
        0.011830519884824753,
        0.23600487411022186,
        0.07190600782632828
      ],
      "min": [
        -0.011830765753984451,
        0.11295805871486664,
        -0.12970690429210663
      ],
      "type": "VEC3"
    },
    {
      "bufferView": 2,
      "byteOffset": 32160,
      "componentType": 5126,
      "count": 1680,
      "max": [
        1.0,
        0.9999732971191406,
        1.0
      ],
      "min": [
        -1.0,
        -0.9999732971191406,
        -0.9997686147689819
      ],
      "type": "VEC3"
    },
    {
      "bufferView": 3,
      "byteOffset": 8000,
      "componentType": 5126,
      "count": 1680,
      "max": [
        1.0,
        0.9997361898422241,
        0.9999901652336121,
        1.0
      ],
      "min": [
        -1.0,
        -0.9999399781227112,
        -0.9862916469573975,
        -1.0
      ],
      "type": "VEC4"
    },
    {
      "bufferView": 1,
      "byteOffset": 8000,
      "componentType": 5126,
      "count": 1680,
      "max": [
        0.99326092004776,
        0.9990234375
      ],
      "min": [
        0.0009765625,
        0.0009765625
      ],
      "type": "VEC2"
    },
    {
      "bufferView": 1,
      "byteOffset": 21440,
      "componentType": 5126,
      "count": 1680,
      "max": [
        0.99326092004776,
        0.9990234375
      ],
      "min": [
        0.0009765625,
        0.0009765625
      ],
      "type": "VEC2"
    },
    {
      "bufferView": 1,
      "byteOffset": 34880,
      "componentType": 5126,
      "count": 1680,
      "max": [
        0.99326092004776,
        0.9990234375
      ],
      "min": [
        0.0009765625,
        0.0009765625
      ],
      "type": "VEC2"
    },
    {
      "bufferView": 0,
      "byteOffset": 9528,
      "componentType": 5125,
      "count": 5664,
      "type": "SCALAR"
    },
    {
      "bufferView": 2,
      "byteOffset": 52320,
      "componentType": 5126,
      "count": 12180,
      "max": [
        0.04474303126335144,
        0.66771399974823,
        0.13148491084575653
      ],
      "min": [
        -0.024162353947758675,
        -0.2638380825519562,
        -0.023786015808582306
      ],
      "type": "VEC3"
    },
    {
      "bufferView": 2,
      "byteOffset": 198480,
      "componentType": 5126,
      "count": 12180,
      "max": [
        1.0,
        1.0,
        1.0
      ],
      "min": [
        -1.0,
        -1.0,
        -1.0
      ],
      "type": "VEC3"
    },
    {
      "bufferView": 3,
      "byteOffset": 34880,
      "componentType": 5126,
      "count": 12180,
      "max": [
        1.0,
        1.0,
        1.0,
        1.0
      ],
      "min": [
        -1.0,
        -1.0,
        -1.0,
        -1.0
      ],
      "type": "VEC4"
    },
    {
      "bufferView": 1,
      "byteOffset": 48320,
      "componentType": 5126,
      "count": 12180,
      "max": [
        0.9972068071365356,
        0.9990234375
      ],
      "min": [
        0.002639951417222619,
        0.002639951417222619
      ],
      "type": "VEC2"
    },
    {
      "bufferView": 1,
      "byteOffset": 145760,
      "componentType": 5126,
      "count": 12180,
      "max": [
        0.9972068071365356,
        0.9990234375
      ],
      "min": [
        0.002639951417222619,
        0.002639951417222619
      ],
      "type": "VEC2"
    },
    {
      "bufferView": 1,
      "byteOffset": 243200,
      "componentType": 5126,
      "count": 12180,
      "max": [
        0.9972068071365356,
        0.9990234375
      ],
      "min": [
        0.002639951417222619,
        0.002639951417222619
      ],
      "type": "VEC2"
    },
    {
      "bufferView": 0,
      "byteOffset": 32184,
      "componentType": 5125,
      "count": 42333,
      "type": "SCALAR"
    },
    {
      "bufferView": 2,
      "byteOffset": 344640,
      "componentType": 5126,
      "count": 714,
      "max": [
        0.02195425145328045,
        0.3839815557003021,
        0.12323282659053802
      ],
      "min": [
        -0.02195425145328045,
        0.2294437736272812,
        0.04634559899568558
      ],
      "type": "VEC3"
    },
    {
      "bufferView": 2,
      "byteOffset": 353208,
      "componentType": 5126,
      "count": 714,
      "max": [
        1.0,
        1.0,
        1.0
      ],
      "min": [
        -1.0,
        -1.0,
        -1.0
      ],
      "type": "VEC3"
    },
    {
      "bufferView": 3,
      "byteOffset": 229760,
      "componentType": 5126,
      "count": 714,
      "max": [
        1.0,
        0.9999982714653015,
        1.0,
        1.0
      ],
      "min": [
        -1.0,
        -0.6989121437072754,
        -1.0,
        1.0
      ],
      "type": "VEC4"
    },
    {
      "bufferView": 1,
      "byteOffset": 340640,
      "componentType": 5126,
      "count": 714,
      "max": [
        0.9990234375,
        0.9493164420127869
      ],
      "min": [
        0.0009765625,
        0.0009765625
      ],
      "type": "VEC2"
    },
    {
      "bufferView": 1,
      "byteOffset": 346352,
      "componentType": 5126,
      "count": 714,
      "max": [
        0.9990234375,
        0.9493164420127869
      ],
      "min": [
        0.0009765625,
        0.0009765625
      ],
      "type": "VEC2"
    },
    {
      "bufferView": 0,
      "byteOffset": 201516,
      "componentType": 5125,
      "count": 3252,
      "type": "SCALAR"
    }
  ],
  "asset": {
    "extras": {
      "author": "Armored Wave (https://sketchfab.com/armoredwave)",
      "license": "CC-BY-4.0 (http://creativecommons.org/licenses/by/4.0/)",
      "source": "https://sketchfab.com/3d-models/aks-74-game-ready-896cdfacb60948bd89918a152d25c658",
      "title": "AKS-74 (game ready)"
    },
    "generator": "Sketchfab-15.44.0",
    "version": "2.0"
  },
  "bufferViews": [
    {
      "buffer": 0,
      "byteLength": 214524,
      "name": "floatBufferViews",
      "target": 34963
    },
    {
      "buffer": 0,
      "byteLength": 352064,
      "byteOffset": 214524,
      "byteStride": 8,
      "name": "floatBufferViews",
      "target": 34962
    },
    {
      "buffer": 0,
      "byteLength": 361776,
      "byteOffset": 566588,
      "byteStride": 12,
      "name": "floatBufferViews",
      "target": 34962
    },
    {
      "buffer": 0,
      "byteLength": 241184,
      "byteOffset": 928364,
      "byteStride": 16,
      "name": "floatBufferViews",
      "target": 34962
    }
  ],
  "buffers": [
    {
      "byteLength": 1169548,
      "uri": "scene.bin"
    }
  ],
  "images": [
    {
      "uri": "textures/M_wooden_furniture2_baseColor.png"
    },
    {
      "uri": "textures/M_wooden_furniture2_metallicRoughness.png"
    },
    {
      "uri": "textures/M_wooden_furniture2_normal.png"
    },
    {
      "uri": "textures/M_brown_mag_baseColor.png"
    },
    {
      "uri": "textures/M_brown_mag_metallicRoughness.png"
    },
    {
      "uri": "textures/M_brown_mag_normal.png"
    },
    {
      "uri": "textures/AKS-74_body_baseColor.png"
    },
    {
      "uri": "textures/AKS-74_body_metallicRoughness.png"
    },
    {
      "uri": "textures/AKS-74_body_normal.png"
    }
  ],
  "materials": [
    {
      "doubleSided": true,
      "name": "M_wooden_furniture2",
      "normalTexture": {
        "index": 2
      },
      "pbrMetallicRoughness": {
        "baseColorTexture": {
          "index": 0
        },
        "metallicRoughnessTexture": {
          "index": 1
        }
      }
    },
    {
      "doubleSided": true,
      "name": "M_brown_mag",
      "normalTexture": {
        "index": 5
      },
      "pbrMetallicRoughness": {
        "baseColorTexture": {
          "index": 3
        },
        "metallicRoughnessTexture": {
          "index": 4
        }
      }
    },
    {
      "doubleSided": true,
      "name": "AKS-74_body",
      "normalTexture": {
        "index": 8
      },
      "pbrMetallicRoughness": {
        "baseColorTexture": {
          "index": 6
        },
        "metallicRoughnessTexture": {
          "index": 7
        }
      }
    }
  ],
  "meshes": [
    {
      "name": "AK-74_grip.002_M_wooden_furniture2_0",
      "primitives": [
        {
          "attributes": {
            "NORMAL": 1,
            "POSITION": 0,
            "TANGENT": 2,
            "TEXCOORD_0": 3,
            "TEXCOORD_1": 4
          },
          "indices": 5,
          "material": 0,
          "mode": 4
        }
      ]
    },
    {
      "name": "AK-74_polymer_mag30_M_brown_mag_0",
      "primitives": [
        {
          "attributes": {
            "NORMAL": 7,
            "POSITION": 6,
            "TANGENT": 8,
            "TEXCOORD_0": 9,
            "TEXCOORD_1": 10,
            "TEXCOORD_2": 11
          },
          "indices": 12,
          "material": 1,
          "mode": 4
        }
      ]
    },
    {
      "name": "AKS-74_body_AKS-74_body_0",
      "primitives": [
        {
          "attributes": {
            "NORMAL": 14,
            "POSITION": 13,
            "TANGENT": 15,
            "TEXCOORD_0": 16,
            "TEXCOORD_1": 17,
            "TEXCOORD_2": 18
          },
          "indices": 19,
          "material": 2,
          "mode": 4
        }
      ]
    },
    {
      "name": "AK-74_wooden_furniture.001_M_wooden_furniture2_0",
      "primitives": [
        {
          "attributes": {
            "NORMAL": 21,
            "POSITION": 20,
            "TANGENT": 22,
            "TEXCOORD_0": 23,
            "TEXCOORD_1": 24
          },
          "indices": 25,
          "material": 0,
          "mode": 4
        }
      ]
    }
  ],
  "nodes": [
    {
      "children": [
        1
      ],
      "matrix": [
        1.0,
        0.0,
        0.0,
        0.0,
        0.0,
        2.220446049250313e-16,
        -1.0,
        0.0,
        0.0,
        1.0,
        2.220446049250313e-16,
        0.0,
        0.0,
        0.0,
        0.0,
        1.0
      ],
      "name": "Sketchfab_model"
    },
    {
      "children": [
        2
      ],
      "matrix": [
        0.009999999776482582,
        0.0,
        0.0,
        0.0,
        0.0,
        0.0,
        0.009999999776482582,
        0.0,
        0.0,
        -0.009999999776482582,
        0.0,
        0.0,
        0.0,
        0.0,
        0.0,
        1.0
      ],
      "name": "fe6564d99f5c4b43993b15dd997ac629.fbx"
    },
    {
      "children": [
        3,
        5,
        7,
        9
      ],
      "name": "RootNode"
    },
    {
      "children": [
        4
      ],
      "matrix": [
        100.0,
        0.0,
        0.0,
        0.0,
        0.0,
        -1.629206793918314e-05,
        -99.99999999999868,
        0.0,
        0.0,
        99.99999999999868,
        -1.629206793918314e-05,
        0.0,
        0.0,
        0.0,
        0.0,
        1.0
      ],
      "name": "AK-74_grip.002"
    },
    {
      "mesh": 0,
      "name": "AK-74_grip.002_M_wooden_furniture2_0"
    },
    {
      "children": [
        6
      ],
      "matrix": [
        100.0,
        0.0,
        0.0,
        0.0,
        0.0,
        -1.629206793918314e-05,
        -99.99999999999868,
        0.0,
        0.0,
        99.99999999999868,
        -1.629206793918314e-05,
        0.0,
        0.0,
        0.0,
        0.0,
        1.0
      ],
      "name": "AK-74_polymer_mag30"
    },
    {
      "mesh": 1,
      "name": "AK-74_polymer_mag30_M_brown_mag_0"
    },
    {
      "children": [
        8
      ],
      "matrix": [
        100.0,
        0.0,
        0.0,
        0.0,
        0.0,
        -1.629206793918314e-05,
        -99.99999999999868,
        0.0,
        0.0,
        99.99999999999868,
        -1.629206793918314e-05,
        0.0,
        0.0,
        0.0,
        0.0,
        1.0
      ],
      "name": "AKS-74_body"
    },
    {
      "mesh": 2,
      "name": "AKS-74_body_AKS-74_body_0"
    },
    {
      "children": [
        10
      ],
      "matrix": [
        100.0,
        0.0,
        0.0,
        0.0,
        0.0,
        -1.629206793918314e-05,
        -99.99999999999868,
        0.0,
        0.0,
        99.99999999999868,
        -1.629206793918314e-05,
        0.0,
        0.0,
        0.0,
        0.0,
        1.0
      ],
      "name": "AK-74_wooden_furniture.001"
    },
    {
      "mesh": 3,
      "name": "AK-74_wooden_furniture.001_M_wooden_furniture2_0"
    }
  ],
  "samplers": [
    {
      "magFilter": 9729,
      "minFilter": 9987,
      "wrapS": 10497,
      "wrapT": 10497
    }
  ],
  "scene": 0,
  "scenes": [
    {
      "name": "Sketchfab_Scene",
      "nodes": [
        0
      ]
    }
  ],
  "textures": [
    {
      "sampler": 0,
      "source": 0
    },
    {
      "sampler": 0,
      "source": 1
    },
    {
      "sampler": 0,
      "source": 2
    },
    {
      "sampler": 0,
      "source": 3
    },
    {
      "sampler": 0,
      "source": 4
    },
    {
      "sampler": 0,
      "source": 5
    },
    {
      "sampler": 0,
      "source": 6
    },
    {
      "sampler": 0,
      "source": 7
    },
    {
      "sampler": 0,
      "source": 8
    }
  ]
}
